<mxfile host="app.diagrams.net" modified="2024-05-08T02:14:54.658Z" agent="Mozilla/5.0 (Windows NT 10.0; Win64; x64) AppleWebKit/537.36 (KHTML, like Gecko) Chrome/124.0.0.0 Safari/537.36" etag="NNALYLJaDP0KMTp25c0D" version="24.2.3" type="device">
  <diagram id="C5RBs43oDa-KdzZeNtuy" name="Page-1">
    <mxGraphModel dx="4897" dy="4461" grid="1" gridSize="10" guides="1" tooltips="1" connect="1" arrows="1" fold="1" page="1" pageScale="1" pageWidth="827" pageHeight="1169" math="0" shadow="0">
      <root>
        <mxCell id="WIyWlLk6GJQsqaUBKTNV-0" />
        <mxCell id="WIyWlLk6GJQsqaUBKTNV-1" parent="WIyWlLk6GJQsqaUBKTNV-0" />
        <mxCell id="ISupGkMPQCeLkf7W93xA-0" value="" style="shape=folder;fontStyle=1;spacingTop=10;tabWidth=40;tabHeight=16&#xa;;tabPosition=left;tabText=&quot;data&quot;;html=1;whiteSpace=wrap;" vertex="1" parent="WIyWlLk6GJQsqaUBKTNV-1">
          <mxGeometry x="40" y="-453" width="710" height="473" as="geometry" />
        </mxCell>
        <mxCell id="ISupGkMPQCeLkf7W93xA-1" value="&lt;font style=&quot;font-size: 9px;&quot;&gt;DATA&lt;/font&gt;" style="text;html=1;align=center;verticalAlign=middle;whiteSpace=wrap;rounded=0;" vertex="1" parent="WIyWlLk6GJQsqaUBKTNV-1">
          <mxGeometry x="30" y="-460" width="60" height="30" as="geometry" />
        </mxCell>
        <mxCell id="ISupGkMPQCeLkf7W93xA-2" value="" style="shape=folder;fontStyle=1;spacingTop=10;tabWidth=60;tabHeight=20;tabPosition=left;tabText=&quot;data&quot;;html=1;whiteSpace=wrap;" vertex="1" parent="WIyWlLk6GJQsqaUBKTNV-1">
          <mxGeometry x="40" y="-774" width="710" height="280" as="geometry" />
        </mxCell>
        <mxCell id="ISupGkMPQCeLkf7W93xA-3" value="&lt;font style=&quot;font-size: 9px;&quot;&gt;DOMAIN&lt;/font&gt;" style="text;html=1;align=center;verticalAlign=middle;whiteSpace=wrap;rounded=0;" vertex="1" parent="WIyWlLk6GJQsqaUBKTNV-1">
          <mxGeometry x="40" y="-780" width="60" height="30" as="geometry" />
        </mxCell>
        <mxCell id="ISupGkMPQCeLkf7W93xA-4" value="" style="shape=folder;fontStyle=1;spacingTop=10;tabWidth=80;tabHeight=20;tabPosition=left;tabText=&quot;data&quot;;html=1;whiteSpace=wrap;" vertex="1" parent="WIyWlLk6GJQsqaUBKTNV-1">
          <mxGeometry x="40" y="-1104" width="710" height="280" as="geometry" />
        </mxCell>
        <mxCell id="ISupGkMPQCeLkf7W93xA-5" value="&lt;font style=&quot;font-size: 9px;&quot;&gt;PRESENTATION&lt;/font&gt;" style="text;html=1;align=center;verticalAlign=middle;whiteSpace=wrap;rounded=0;" vertex="1" parent="WIyWlLk6GJQsqaUBKTNV-1">
          <mxGeometry x="50" y="-1110" width="60" height="30" as="geometry" />
        </mxCell>
        <mxCell id="ISupGkMPQCeLkf7W93xA-6" value="" style="shape=folder;fontStyle=1;spacingTop=10;tabWidth=120;tabHeight=20;tabPosition=left;tabText=&quot;data&quot;;html=1;whiteSpace=wrap;" vertex="1" parent="WIyWlLk6GJQsqaUBKTNV-1">
          <mxGeometry x="850" y="-1084" width="440" height="914" as="geometry" />
        </mxCell>
        <mxCell id="ISupGkMPQCeLkf7W93xA-7" value="&lt;font style=&quot;font-size: 9px;&quot;&gt;DEPENDENCY_INJECTOR&lt;/font&gt;" style="text;html=1;align=center;verticalAlign=middle;whiteSpace=wrap;rounded=0;" vertex="1" parent="WIyWlLk6GJQsqaUBKTNV-1">
          <mxGeometry x="880" y="-1090" width="60" height="30" as="geometry" />
        </mxCell>
        <mxCell id="ISupGkMPQCeLkf7W93xA-24" style="edgeStyle=orthogonalEdgeStyle;rounded=0;orthogonalLoop=1;jettySize=auto;html=1;exitX=0.5;exitY=0;exitDx=0;exitDy=0;entryX=0.5;entryY=1;entryDx=0;entryDy=0;" edge="1" parent="WIyWlLk6GJQsqaUBKTNV-1" source="ISupGkMPQCeLkf7W93xA-10" target="ISupGkMPQCeLkf7W93xA-23">
          <mxGeometry relative="1" as="geometry" />
        </mxCell>
        <mxCell id="ISupGkMPQCeLkf7W93xA-10" value="Article Database *" style="html=1;whiteSpace=wrap;" vertex="1" parent="WIyWlLk6GJQsqaUBKTNV-1">
          <mxGeometry x="90" y="-100" width="110" height="50" as="geometry" />
        </mxCell>
        <mxCell id="ISupGkMPQCeLkf7W93xA-15" value="" style="shape=datastore;whiteSpace=wrap;html=1;" vertex="1" parent="WIyWlLk6GJQsqaUBKTNV-1">
          <mxGeometry x="115" y="60" width="60" height="60" as="geometry" />
        </mxCell>
        <mxCell id="ISupGkMPQCeLkf7W93xA-17" value="" style="endArrow=block;endSize=16;endFill=0;html=1;rounded=0;exitX=0.5;exitY=1;exitDx=0;exitDy=0;entryX=0.5;entryY=0;entryDx=0;entryDy=0;" edge="1" parent="WIyWlLk6GJQsqaUBKTNV-1" source="ISupGkMPQCeLkf7W93xA-10" target="ISupGkMPQCeLkf7W93xA-15">
          <mxGeometry width="160" relative="1" as="geometry">
            <mxPoint x="254" y="-50" as="sourcePoint" />
            <mxPoint x="414" y="-50" as="targetPoint" />
          </mxGeometry>
        </mxCell>
        <mxCell id="ISupGkMPQCeLkf7W93xA-21" value="Article Entity" style="html=1;whiteSpace=wrap;" vertex="1" parent="WIyWlLk6GJQsqaUBKTNV-1">
          <mxGeometry x="90" y="-260" width="110" height="50" as="geometry" />
        </mxCell>
        <mxCell id="ISupGkMPQCeLkf7W93xA-25" style="edgeStyle=orthogonalEdgeStyle;rounded=0;orthogonalLoop=1;jettySize=auto;html=1;exitX=0.5;exitY=0;exitDx=0;exitDy=0;entryX=0.5;entryY=1;entryDx=0;entryDy=0;" edge="1" parent="WIyWlLk6GJQsqaUBKTNV-1" source="ISupGkMPQCeLkf7W93xA-23" target="ISupGkMPQCeLkf7W93xA-21">
          <mxGeometry relative="1" as="geometry" />
        </mxCell>
        <mxCell id="ISupGkMPQCeLkf7W93xA-23" value="&lt;p style=&quot;margin:0px;margin-top:4px;text-align:center;&quot;&gt;&lt;i&gt;&amp;lt;&amp;lt;Interface&amp;gt;&amp;gt;&lt;/i&gt;&lt;br&gt;Article DAO&lt;/p&gt;&lt;p style=&quot;margin:0px;margin-left:4px;&quot;&gt;&lt;br&gt;&lt;/p&gt;" style="verticalAlign=top;align=left;overflow=fill;html=1;whiteSpace=wrap;" vertex="1" parent="WIyWlLk6GJQsqaUBKTNV-1">
          <mxGeometry x="90" y="-173" width="110" height="40" as="geometry" />
        </mxCell>
        <mxCell id="ISupGkMPQCeLkf7W93xA-63" style="edgeStyle=orthogonalEdgeStyle;rounded=0;orthogonalLoop=1;jettySize=auto;html=1;exitX=0.25;exitY=0;exitDx=0;exitDy=0;entryX=0.18;entryY=0.959;entryDx=0;entryDy=0;entryPerimeter=0;" edge="1" parent="WIyWlLk6GJQsqaUBKTNV-1" source="ISupGkMPQCeLkf7W93xA-26" target="ISupGkMPQCeLkf7W93xA-47">
          <mxGeometry relative="1" as="geometry" />
        </mxCell>
        <mxCell id="ISupGkMPQCeLkf7W93xA-26" value="&lt;p style=&quot;margin:0px;margin-top:4px;text-align:center;&quot;&gt;&lt;i&gt;&amp;lt;&amp;lt;Interface&amp;gt;&amp;gt;&lt;/i&gt;&lt;br&gt;Article Local Storage&lt;/p&gt;&lt;p style=&quot;margin:0px;margin-left:4px;&quot;&gt;&lt;br&gt;&lt;/p&gt;" style="verticalAlign=top;align=left;overflow=fill;html=1;whiteSpace=wrap;" vertex="1" parent="WIyWlLk6GJQsqaUBKTNV-1">
          <mxGeometry x="260" y="-255" width="130" height="40" as="geometry" />
        </mxCell>
        <mxCell id="ISupGkMPQCeLkf7W93xA-31" style="edgeStyle=orthogonalEdgeStyle;rounded=0;orthogonalLoop=1;jettySize=auto;html=1;exitX=0;exitY=0.5;exitDx=0;exitDy=0;entryX=1;entryY=0.5;entryDx=0;entryDy=0;" edge="1" parent="WIyWlLk6GJQsqaUBKTNV-1" source="ISupGkMPQCeLkf7W93xA-28" target="ISupGkMPQCeLkf7W93xA-23">
          <mxGeometry relative="1" as="geometry" />
        </mxCell>
        <mxCell id="ISupGkMPQCeLkf7W93xA-28" value="Article Local Storage Impl" style="html=1;whiteSpace=wrap;" vertex="1" parent="WIyWlLk6GJQsqaUBKTNV-1">
          <mxGeometry x="270" y="-178" width="110" height="50" as="geometry" />
        </mxCell>
        <mxCell id="ISupGkMPQCeLkf7W93xA-30" value="" style="endArrow=block;dashed=1;endFill=0;endSize=12;html=1;rounded=0;entryX=0.5;entryY=1;entryDx=0;entryDy=0;exitX=0.5;exitY=0;exitDx=0;exitDy=0;" edge="1" parent="WIyWlLk6GJQsqaUBKTNV-1" source="ISupGkMPQCeLkf7W93xA-28" target="ISupGkMPQCeLkf7W93xA-26">
          <mxGeometry width="160" relative="1" as="geometry">
            <mxPoint x="325" y="-340" as="sourcePoint" />
            <mxPoint x="480" y="-260" as="targetPoint" />
          </mxGeometry>
        </mxCell>
        <mxCell id="ISupGkMPQCeLkf7W93xA-64" style="edgeStyle=orthogonalEdgeStyle;rounded=0;orthogonalLoop=1;jettySize=auto;html=1;exitX=0.75;exitY=0;exitDx=0;exitDy=0;entryX=0.5;entryY=1;entryDx=0;entryDy=0;" edge="1" parent="WIyWlLk6GJQsqaUBKTNV-1" source="ISupGkMPQCeLkf7W93xA-32" target="ISupGkMPQCeLkf7W93xA-47">
          <mxGeometry relative="1" as="geometry">
            <Array as="points">
              <mxPoint x="538" y="-420" />
              <mxPoint x="100" y="-420" />
            </Array>
          </mxGeometry>
        </mxCell>
        <mxCell id="ISupGkMPQCeLkf7W93xA-32" value="&lt;p style=&quot;margin:0px;margin-top:4px;text-align:center;&quot;&gt;&lt;i&gt;&amp;lt;&amp;lt;Interface&amp;gt;&amp;gt;&lt;/i&gt;&lt;br&gt;Article Track Service&lt;/p&gt;&lt;p style=&quot;margin:0px;margin-left:4px;&quot;&gt;&lt;br&gt;&lt;/p&gt;" style="verticalAlign=top;align=left;overflow=fill;html=1;whiteSpace=wrap;" vertex="1" parent="WIyWlLk6GJQsqaUBKTNV-1">
          <mxGeometry x="440" y="-255" width="130" height="40" as="geometry" />
        </mxCell>
        <mxCell id="ISupGkMPQCeLkf7W93xA-36" style="edgeStyle=orthogonalEdgeStyle;rounded=0;orthogonalLoop=1;jettySize=auto;html=1;exitX=0.5;exitY=1;exitDx=0;exitDy=0;entryX=0.5;entryY=0;entryDx=0;entryDy=0;" edge="1" parent="WIyWlLk6GJQsqaUBKTNV-1" source="ISupGkMPQCeLkf7W93xA-33" target="ISupGkMPQCeLkf7W93xA-35">
          <mxGeometry relative="1" as="geometry" />
        </mxCell>
        <mxCell id="ISupGkMPQCeLkf7W93xA-42" style="edgeStyle=orthogonalEdgeStyle;rounded=0;orthogonalLoop=1;jettySize=auto;html=1;exitX=1;exitY=0.5;exitDx=0;exitDy=0;entryX=0;entryY=0.5;entryDx=0;entryDy=0;" edge="1" parent="WIyWlLk6GJQsqaUBKTNV-1" source="ISupGkMPQCeLkf7W93xA-33" target="ISupGkMPQCeLkf7W93xA-37">
          <mxGeometry relative="1" as="geometry" />
        </mxCell>
        <mxCell id="ISupGkMPQCeLkf7W93xA-33" value="Article Track Service Impl" style="html=1;whiteSpace=wrap;" vertex="1" parent="WIyWlLk6GJQsqaUBKTNV-1">
          <mxGeometry x="450" y="-178" width="110" height="50" as="geometry" />
        </mxCell>
        <mxCell id="ISupGkMPQCeLkf7W93xA-34" value="" style="endArrow=block;dashed=1;endFill=0;endSize=12;html=1;rounded=0;entryX=0.5;entryY=1;entryDx=0;entryDy=0;exitX=0.5;exitY=0;exitDx=0;exitDy=0;" edge="1" parent="WIyWlLk6GJQsqaUBKTNV-1" source="ISupGkMPQCeLkf7W93xA-33" target="ISupGkMPQCeLkf7W93xA-32">
          <mxGeometry width="160" relative="1" as="geometry">
            <mxPoint x="387" y="-330" as="sourcePoint" />
            <mxPoint x="387" y="-365" as="targetPoint" />
          </mxGeometry>
        </mxCell>
        <mxCell id="ISupGkMPQCeLkf7W93xA-45" style="edgeStyle=orthogonalEdgeStyle;rounded=0;orthogonalLoop=1;jettySize=auto;html=1;exitX=0.5;exitY=1;exitDx=0;exitDy=0;entryX=0.5;entryY=0;entryDx=0;entryDy=0;" edge="1" parent="WIyWlLk6GJQsqaUBKTNV-1" source="ISupGkMPQCeLkf7W93xA-35" target="ISupGkMPQCeLkf7W93xA-43">
          <mxGeometry relative="1" as="geometry" />
        </mxCell>
        <mxCell id="ISupGkMPQCeLkf7W93xA-35" value="&lt;p style=&quot;margin:0px;margin-top:4px;text-align:center;&quot;&gt;&lt;i&gt;&amp;lt;&amp;lt;Interface&amp;gt;&amp;gt;&lt;/i&gt;&lt;br&gt;LastFM API&lt;/p&gt;&lt;p style=&quot;margin:0px;margin-left:4px;&quot;&gt;&lt;br&gt;&lt;/p&gt;" style="verticalAlign=top;align=left;overflow=fill;html=1;whiteSpace=wrap;" vertex="1" parent="WIyWlLk6GJQsqaUBKTNV-1">
          <mxGeometry x="440" y="-95" width="130" height="40" as="geometry" />
        </mxCell>
        <mxCell id="ISupGkMPQCeLkf7W93xA-65" style="edgeStyle=orthogonalEdgeStyle;rounded=0;orthogonalLoop=1;jettySize=auto;html=1;exitX=0.5;exitY=0;exitDx=0;exitDy=0;entryX=0.75;entryY=1;entryDx=0;entryDy=0;" edge="1" parent="WIyWlLk6GJQsqaUBKTNV-1" source="ISupGkMPQCeLkf7W93xA-37" target="ISupGkMPQCeLkf7W93xA-47">
          <mxGeometry relative="1" as="geometry">
            <Array as="points">
              <mxPoint x="665" y="-460" />
              <mxPoint x="120" y="-460" />
            </Array>
          </mxGeometry>
        </mxCell>
        <mxCell id="ISupGkMPQCeLkf7W93xA-37" value="&lt;p style=&quot;margin:0px;margin-top:4px;text-align:center;&quot;&gt;&lt;i&gt;&amp;lt;&amp;lt;Interface&amp;gt;&amp;gt;&lt;/i&gt;&lt;br&gt;LastFM to Article Resolver&lt;/p&gt;&lt;p style=&quot;margin:0px;margin-left:4px;&quot;&gt;&lt;br&gt;&lt;/p&gt;" style="verticalAlign=top;align=left;overflow=fill;html=1;whiteSpace=wrap;" vertex="1" parent="WIyWlLk6GJQsqaUBKTNV-1">
          <mxGeometry x="600" y="-255" width="130" height="55" as="geometry" />
        </mxCell>
        <mxCell id="ISupGkMPQCeLkf7W93xA-38" value="LastFM to Article Resolver Impl" style="html=1;whiteSpace=wrap;" vertex="1" parent="WIyWlLk6GJQsqaUBKTNV-1">
          <mxGeometry x="610" y="-150" width="110" height="50" as="geometry" />
        </mxCell>
        <mxCell id="ISupGkMPQCeLkf7W93xA-39" value="" style="endArrow=block;dashed=1;endFill=0;endSize=12;html=1;rounded=0;entryX=0.5;entryY=1;entryDx=0;entryDy=0;exitX=0.5;exitY=0;exitDx=0;exitDy=0;" edge="1" parent="WIyWlLk6GJQsqaUBKTNV-1" source="ISupGkMPQCeLkf7W93xA-38" target="ISupGkMPQCeLkf7W93xA-37">
          <mxGeometry width="160" relative="1" as="geometry">
            <mxPoint x="515" y="-328" as="sourcePoint" />
            <mxPoint x="515" y="-365" as="targetPoint" />
          </mxGeometry>
        </mxCell>
        <mxCell id="ISupGkMPQCeLkf7W93xA-43" value="Service" style="shape=parallelogram;perimeter=parallelogramPerimeter;whiteSpace=wrap;html=1;fixedSize=1;" vertex="1" parent="WIyWlLk6GJQsqaUBKTNV-1">
          <mxGeometry x="450" y="70" width="110" height="50" as="geometry" />
        </mxCell>
        <mxCell id="ISupGkMPQCeLkf7W93xA-46" value="Article *" style="html=1;whiteSpace=wrap;" vertex="1" parent="WIyWlLk6GJQsqaUBKTNV-1">
          <mxGeometry x="120" y="-690" width="80" height="50" as="geometry" />
        </mxCell>
        <mxCell id="ISupGkMPQCeLkf7W93xA-47" value="Artist&amp;nbsp;&lt;span style=&quot;color: rgba(0, 0, 0, 0); font-family: monospace; font-size: 0px; text-align: start; text-wrap: nowrap;&quot;&gt;%3CmxGraphModel%3E%3Croot%3E%3CmxCell%20id%3D%220%22%2F%3E%3CmxCell%20id%3D%221%22%20parent%3D%220%22%2F%3E%3CmxCell%20id%3D%222%22%20value%3D%22Article%20*%22%20style%3D%22html%3D1%3BwhiteSpace%3Dwrap%3B%22%20vertex%3D%221%22%20parent%3D%221%22%3E%3CmxGeometry%20x%3D%22115%22%20y%3D%22-690%22%20width%3D%2280%22%20height%3D%2250%22%20as%3D%22geometry%22%2F%3E%3C%2FmxCell%3E%3C%2Froot%3E%3C%2FmxGraphModel%3E&lt;/span&gt;Article" style="html=1;whiteSpace=wrap;" vertex="1" parent="WIyWlLk6GJQsqaUBKTNV-1">
          <mxGeometry x="60" y="-590" width="80" height="50" as="geometry" />
        </mxCell>
        <mxCell id="ISupGkMPQCeLkf7W93xA-48" value="Empty&amp;nbsp;&lt;span style=&quot;color: rgba(0, 0, 0, 0); font-family: monospace; font-size: 0px; text-align: start; text-wrap: nowrap;&quot;&gt;%3CmxGraphModel%3E%3Croot%3E%3CmxCell%20id%3D%220%22%2F%3E%3CmxCell%20id%3D%221%22%20parent%3D%220%22%2F%3E%3CmxCell%20id%3D%222%22%20value%3D%22Article%20*%22%20style%3D%22html%3D1%3BwhiteSpace%3Dwrap%3B%22%20vertex%3D%221%22%20parent%3D%221%22%3E%3CmxGeometry%20x%3D%22115%22%20y%3D%22-690%22%20width%3D%2280%22%20height%3D%2250%22%20as%3D%22geometry%22%2F%3E%3C%2FmxCell%3E%3C%2Froot%3E%3C%2FmxGraphModel%3E&lt;/span&gt;Article" style="html=1;whiteSpace=wrap;" vertex="1" parent="WIyWlLk6GJQsqaUBKTNV-1">
          <mxGeometry x="180" y="-590" width="80" height="50" as="geometry" />
        </mxCell>
        <mxCell id="ISupGkMPQCeLkf7W93xA-49" value="" style="endArrow=block;endSize=16;endFill=0;html=1;rounded=0;entryX=0.25;entryY=1;entryDx=0;entryDy=0;exitX=0.5;exitY=0;exitDx=0;exitDy=0;" edge="1" parent="WIyWlLk6GJQsqaUBKTNV-1" source="ISupGkMPQCeLkf7W93xA-47" target="ISupGkMPQCeLkf7W93xA-46">
          <mxGeometry width="160" relative="1" as="geometry">
            <mxPoint x="320" y="-560" as="sourcePoint" />
            <mxPoint x="480" y="-560" as="targetPoint" />
          </mxGeometry>
        </mxCell>
        <mxCell id="ISupGkMPQCeLkf7W93xA-50" value="" style="endArrow=block;endSize=16;endFill=0;html=1;rounded=0;entryX=0.608;entryY=1.009;entryDx=0;entryDy=0;exitX=0.5;exitY=0;exitDx=0;exitDy=0;entryPerimeter=0;" edge="1" parent="WIyWlLk6GJQsqaUBKTNV-1" source="ISupGkMPQCeLkf7W93xA-48" target="ISupGkMPQCeLkf7W93xA-46">
          <mxGeometry width="160" relative="1" as="geometry">
            <mxPoint x="110" y="-580" as="sourcePoint" />
            <mxPoint x="145" y="-630" as="targetPoint" />
          </mxGeometry>
        </mxCell>
        <mxCell id="ISupGkMPQCeLkf7W93xA-51" value="&lt;p style=&quot;margin:0px;margin-top:4px;text-align:center;&quot;&gt;&lt;i&gt;&amp;lt;&amp;lt;Interface&amp;gt;&amp;gt;&lt;/i&gt;&lt;br&gt;Artist Article Repository&lt;/p&gt;&lt;p style=&quot;margin:0px;margin-left:4px;&quot;&gt;&lt;br&gt;&lt;/p&gt;" style="verticalAlign=top;align=left;overflow=fill;html=1;whiteSpace=wrap;" vertex="1" parent="WIyWlLk6GJQsqaUBKTNV-1">
          <mxGeometry x="339" y="-690" width="111" height="50" as="geometry" />
        </mxCell>
        <mxCell id="ISupGkMPQCeLkf7W93xA-52" style="rounded=0;orthogonalLoop=1;jettySize=auto;html=1;exitX=0;exitY=0.5;exitDx=0;exitDy=0;entryX=1;entryY=0.5;entryDx=0;entryDy=0;" edge="1" parent="WIyWlLk6GJQsqaUBKTNV-1" source="ISupGkMPQCeLkf7W93xA-51" target="ISupGkMPQCeLkf7W93xA-46">
          <mxGeometry relative="1" as="geometry" />
        </mxCell>
        <mxCell id="ISupGkMPQCeLkf7W93xA-61" style="edgeStyle=orthogonalEdgeStyle;rounded=0;orthogonalLoop=1;jettySize=auto;html=1;exitX=0.25;exitY=1;exitDx=0;exitDy=0;entryX=0.5;entryY=0;entryDx=0;entryDy=0;" edge="1" parent="WIyWlLk6GJQsqaUBKTNV-1" source="ISupGkMPQCeLkf7W93xA-53" target="ISupGkMPQCeLkf7W93xA-26">
          <mxGeometry relative="1" as="geometry" />
        </mxCell>
        <mxCell id="ISupGkMPQCeLkf7W93xA-62" style="edgeStyle=orthogonalEdgeStyle;rounded=0;orthogonalLoop=1;jettySize=auto;html=1;exitX=0.75;exitY=1;exitDx=0;exitDy=0;entryX=0.25;entryY=0;entryDx=0;entryDy=0;" edge="1" parent="WIyWlLk6GJQsqaUBKTNV-1" source="ISupGkMPQCeLkf7W93xA-53" target="ISupGkMPQCeLkf7W93xA-32">
          <mxGeometry relative="1" as="geometry" />
        </mxCell>
        <mxCell id="ISupGkMPQCeLkf7W93xA-53" value="Article Artist Repository Impl" style="html=1;whiteSpace=wrap;" vertex="1" parent="WIyWlLk6GJQsqaUBKTNV-1">
          <mxGeometry x="340" y="-370" width="110" height="50" as="geometry" />
        </mxCell>
        <mxCell id="ISupGkMPQCeLkf7W93xA-57" value="" style="endArrow=block;endSize=16;endFill=0;html=1;rounded=0;entryX=0.5;entryY=1;entryDx=0;entryDy=0;exitX=0.5;exitY=0;exitDx=0;exitDy=0;" edge="1" parent="WIyWlLk6GJQsqaUBKTNV-1" source="ISupGkMPQCeLkf7W93xA-53" target="ISupGkMPQCeLkf7W93xA-51">
          <mxGeometry width="160" relative="1" as="geometry">
            <mxPoint x="230" y="-580" as="sourcePoint" />
            <mxPoint x="179" y="-630" as="targetPoint" />
          </mxGeometry>
        </mxCell>
        <mxCell id="ISupGkMPQCeLkf7W93xA-67" value="&lt;p style=&quot;margin:0px;margin-top:4px;text-align:center;&quot;&gt;&lt;i&gt;&amp;lt;&amp;lt;Interface&amp;gt;&amp;gt;&lt;/i&gt;&lt;br&gt;More Details Presenter&lt;/p&gt;&lt;p style=&quot;margin:0px;margin-left:4px;&quot;&gt;&lt;br&gt;&lt;/p&gt;" style="verticalAlign=top;align=left;overflow=fill;html=1;whiteSpace=wrap;" vertex="1" parent="WIyWlLk6GJQsqaUBKTNV-1">
          <mxGeometry x="340" y="-1010" width="111" height="50" as="geometry" />
        </mxCell>
        <mxCell id="ISupGkMPQCeLkf7W93xA-70" style="rounded=0;orthogonalLoop=1;jettySize=auto;html=1;exitX=0.5;exitY=1;exitDx=0;exitDy=0;entryX=0.5;entryY=0;entryDx=0;entryDy=0;" edge="1" parent="WIyWlLk6GJQsqaUBKTNV-1" source="ISupGkMPQCeLkf7W93xA-69" target="ISupGkMPQCeLkf7W93xA-51">
          <mxGeometry relative="1" as="geometry" />
        </mxCell>
        <mxCell id="ISupGkMPQCeLkf7W93xA-87" style="edgeStyle=orthogonalEdgeStyle;rounded=0;orthogonalLoop=1;jettySize=auto;html=1;exitX=0;exitY=0.5;exitDx=0;exitDy=0;entryX=0.25;entryY=1;entryDx=0;entryDy=0;" edge="1" parent="WIyWlLk6GJQsqaUBKTNV-1" source="ISupGkMPQCeLkf7W93xA-69" target="ISupGkMPQCeLkf7W93xA-80">
          <mxGeometry relative="1" as="geometry" />
        </mxCell>
        <mxCell id="ISupGkMPQCeLkf7W93xA-69" value="More Details Presenter Impl" style="html=1;whiteSpace=wrap;" vertex="1" parent="WIyWlLk6GJQsqaUBKTNV-1">
          <mxGeometry x="341" y="-900" width="110" height="50" as="geometry" />
        </mxCell>
        <mxCell id="ISupGkMPQCeLkf7W93xA-71" value="" style="endArrow=block;dashed=1;endFill=0;endSize=12;html=1;rounded=0;entryX=0.5;entryY=1;entryDx=0;entryDy=0;exitX=0.5;exitY=0;exitDx=0;exitDy=0;" edge="1" parent="WIyWlLk6GJQsqaUBKTNV-1" source="ISupGkMPQCeLkf7W93xA-69" target="ISupGkMPQCeLkf7W93xA-67">
          <mxGeometry width="160" relative="1" as="geometry">
            <mxPoint x="620" y="-584" as="sourcePoint" />
            <mxPoint x="620" y="-621" as="targetPoint" />
          </mxGeometry>
        </mxCell>
        <mxCell id="ISupGkMPQCeLkf7W93xA-72" value="" style="shape=folder;fontStyle=1;spacingTop=10;tabWidth=80;tabHeight=20;tabPosition=left;tabText=&quot;data&quot;;html=1;whiteSpace=wrap;" vertex="1" parent="WIyWlLk6GJQsqaUBKTNV-1">
          <mxGeometry x="140" y="-1414" width="480" height="280" as="geometry" />
        </mxCell>
        <mxCell id="ISupGkMPQCeLkf7W93xA-73" value="&lt;font style=&quot;font-size: 9px;&quot;&gt;OBSERVER&lt;/font&gt;" style="text;html=1;align=center;verticalAlign=middle;whiteSpace=wrap;rounded=0;" vertex="1" parent="WIyWlLk6GJQsqaUBKTNV-1">
          <mxGeometry x="150" y="-1420" width="60" height="30" as="geometry" />
        </mxCell>
        <mxCell id="ISupGkMPQCeLkf7W93xA-77" value="&lt;p style=&quot;margin:0px;margin-top:4px;text-align:center;&quot;&gt;&lt;i&gt;&amp;lt;&amp;lt;Interface&amp;gt;&amp;gt;&lt;/i&gt;&lt;br&gt;Observable&lt;/p&gt;&lt;p style=&quot;margin:0px;margin-left:4px;&quot;&gt;&lt;br&gt;&lt;/p&gt;" style="verticalAlign=top;align=left;overflow=fill;html=1;whiteSpace=wrap;" vertex="1" parent="WIyWlLk6GJQsqaUBKTNV-1">
          <mxGeometry x="169" y="-1330" width="111" height="40" as="geometry" />
        </mxCell>
        <mxCell id="ISupGkMPQCeLkf7W93xA-78" value="&lt;p style=&quot;margin:0px;margin-top:4px;text-align:center;&quot;&gt;&lt;i&gt;&amp;lt;&amp;lt;Interface&amp;gt;&amp;gt;&lt;/i&gt;&lt;br&gt;Observer&lt;/p&gt;&lt;p style=&quot;margin:0px;margin-left:4px;&quot;&gt;&lt;br&gt;&lt;/p&gt;" style="verticalAlign=top;align=left;overflow=fill;html=1;whiteSpace=wrap;" vertex="1" parent="WIyWlLk6GJQsqaUBKTNV-1">
          <mxGeometry x="471" y="-1205" width="111" height="40" as="geometry" />
        </mxCell>
        <mxCell id="ISupGkMPQCeLkf7W93xA-79" value="&lt;p style=&quot;margin:0px;margin-top:4px;text-align:center;&quot;&gt;&lt;i&gt;&amp;lt;&amp;lt;Interface&amp;gt;&amp;gt;&lt;/i&gt;&lt;br&gt;Publisher&lt;/p&gt;&lt;p style=&quot;margin:0px;margin-left:4px;&quot;&gt;&lt;br&gt;&lt;/p&gt;" style="verticalAlign=top;align=left;overflow=fill;html=1;whiteSpace=wrap;" vertex="1" parent="WIyWlLk6GJQsqaUBKTNV-1">
          <mxGeometry x="360" y="-1330" width="111" height="40" as="geometry" />
        </mxCell>
        <mxCell id="ISupGkMPQCeLkf7W93xA-85" style="edgeStyle=orthogonalEdgeStyle;rounded=0;orthogonalLoop=1;jettySize=auto;html=1;exitX=1;exitY=0.5;exitDx=0;exitDy=0;entryX=0;entryY=0.5;entryDx=0;entryDy=0;" edge="1" parent="WIyWlLk6GJQsqaUBKTNV-1" source="ISupGkMPQCeLkf7W93xA-80" target="ISupGkMPQCeLkf7W93xA-78">
          <mxGeometry relative="1" as="geometry" />
        </mxCell>
        <mxCell id="ISupGkMPQCeLkf7W93xA-80" value="Subject" style="html=1;whiteSpace=wrap;" vertex="1" parent="WIyWlLk6GJQsqaUBKTNV-1">
          <mxGeometry x="280" y="-1210" width="110" height="50" as="geometry" />
        </mxCell>
        <mxCell id="ISupGkMPQCeLkf7W93xA-83" value="" style="endArrow=block;dashed=1;endFill=0;endSize=12;html=1;rounded=0;entryX=0.5;entryY=1;entryDx=0;entryDy=0;exitX=0.5;exitY=0;exitDx=0;exitDy=0;" edge="1" parent="WIyWlLk6GJQsqaUBKTNV-1" source="ISupGkMPQCeLkf7W93xA-80" target="ISupGkMPQCeLkf7W93xA-77">
          <mxGeometry width="160" relative="1" as="geometry">
            <mxPoint x="446" y="-890" as="sourcePoint" />
            <mxPoint x="446" y="-950" as="targetPoint" />
          </mxGeometry>
        </mxCell>
        <mxCell id="ISupGkMPQCeLkf7W93xA-84" value="" style="endArrow=block;dashed=1;endFill=0;endSize=12;html=1;rounded=0;entryX=0.5;entryY=1;entryDx=0;entryDy=0;exitX=0.5;exitY=0;exitDx=0;exitDy=0;" edge="1" parent="WIyWlLk6GJQsqaUBKTNV-1" source="ISupGkMPQCeLkf7W93xA-80" target="ISupGkMPQCeLkf7W93xA-79">
          <mxGeometry width="160" relative="1" as="geometry">
            <mxPoint x="345" y="-1200" as="sourcePoint" />
            <mxPoint x="235" y="-1280" as="targetPoint" />
          </mxGeometry>
        </mxCell>
        <mxCell id="ISupGkMPQCeLkf7W93xA-86" style="edgeStyle=orthogonalEdgeStyle;rounded=0;orthogonalLoop=1;jettySize=auto;html=1;exitX=0;exitY=0.5;exitDx=0;exitDy=0;entryX=0.204;entryY=0.936;entryDx=0;entryDy=0;entryPerimeter=0;" edge="1" parent="WIyWlLk6GJQsqaUBKTNV-1" source="ISupGkMPQCeLkf7W93xA-67" target="ISupGkMPQCeLkf7W93xA-77">
          <mxGeometry relative="1" as="geometry" />
        </mxCell>
        <mxCell id="ISupGkMPQCeLkf7W93xA-88" value="More Details UIState&amp;nbsp;" style="html=1;whiteSpace=wrap;" vertex="1" parent="WIyWlLk6GJQsqaUBKTNV-1">
          <mxGeometry x="582" y="-1010" width="80" height="50" as="geometry" />
        </mxCell>
        <mxCell id="ISupGkMPQCeLkf7W93xA-91" style="rounded=0;orthogonalLoop=1;jettySize=auto;html=1;exitX=0.5;exitY=0;exitDx=0;exitDy=0;entryX=0.5;entryY=1;entryDx=0;entryDy=0;" edge="1" parent="WIyWlLk6GJQsqaUBKTNV-1" source="ISupGkMPQCeLkf7W93xA-90" target="ISupGkMPQCeLkf7W93xA-88">
          <mxGeometry relative="1" as="geometry" />
        </mxCell>
        <mxCell id="ISupGkMPQCeLkf7W93xA-94" style="edgeStyle=orthogonalEdgeStyle;rounded=0;orthogonalLoop=1;jettySize=auto;html=1;exitX=0;exitY=0.5;exitDx=0;exitDy=0;entryX=1;entryY=0.5;entryDx=0;entryDy=0;" edge="1" parent="WIyWlLk6GJQsqaUBKTNV-1" source="ISupGkMPQCeLkf7W93xA-90" target="ISupGkMPQCeLkf7W93xA-69">
          <mxGeometry relative="1" as="geometry" />
        </mxCell>
        <mxCell id="ISupGkMPQCeLkf7W93xA-96" style="edgeStyle=orthogonalEdgeStyle;rounded=0;orthogonalLoop=1;jettySize=auto;html=1;exitX=1;exitY=0.5;exitDx=0;exitDy=0;entryX=0;entryY=0.5;entryDx=0;entryDy=0;" edge="1" parent="WIyWlLk6GJQsqaUBKTNV-1" source="ISupGkMPQCeLkf7W93xA-90" target="ISupGkMPQCeLkf7W93xA-95">
          <mxGeometry relative="1" as="geometry" />
        </mxCell>
        <mxCell id="ISupGkMPQCeLkf7W93xA-90" value="More Details View&amp;nbsp;" style="html=1;whiteSpace=wrap;" vertex="1" parent="WIyWlLk6GJQsqaUBKTNV-1">
          <mxGeometry x="582" y="-900" width="80" height="50" as="geometry" />
        </mxCell>
        <mxCell id="ISupGkMPQCeLkf7W93xA-98" style="edgeStyle=orthogonalEdgeStyle;rounded=0;orthogonalLoop=1;jettySize=auto;html=1;exitX=0.5;exitY=1;exitDx=0;exitDy=0;entryX=0.5;entryY=0;entryDx=0;entryDy=0;" edge="1" parent="WIyWlLk6GJQsqaUBKTNV-1" source="ISupGkMPQCeLkf7W93xA-95" target="ISupGkMPQCeLkf7W93xA-97">
          <mxGeometry relative="1" as="geometry" />
        </mxCell>
        <mxCell id="ISupGkMPQCeLkf7W93xA-101" style="edgeStyle=orthogonalEdgeStyle;rounded=0;orthogonalLoop=1;jettySize=auto;html=1;exitX=0.25;exitY=1;exitDx=0;exitDy=0;entryX=0.75;entryY=1;entryDx=0;entryDy=0;" edge="1" parent="WIyWlLk6GJQsqaUBKTNV-1" source="ISupGkMPQCeLkf7W93xA-95" target="ISupGkMPQCeLkf7W93xA-69">
          <mxGeometry relative="1" as="geometry">
            <mxPoint x="1017.5" y="-800" as="sourcePoint" />
            <mxPoint x="423.5" y="-800" as="targetPoint" />
            <Array as="points">
              <mxPoint x="978" y="-800" />
              <mxPoint x="424" y="-800" />
            </Array>
          </mxGeometry>
        </mxCell>
        <mxCell id="ISupGkMPQCeLkf7W93xA-95" value="More Details Injector" style="html=1;whiteSpace=wrap;" vertex="1" parent="WIyWlLk6GJQsqaUBKTNV-1">
          <mxGeometry x="950" y="-900" width="110" height="50" as="geometry" />
        </mxCell>
        <mxCell id="ISupGkMPQCeLkf7W93xA-107" style="edgeStyle=orthogonalEdgeStyle;rounded=0;orthogonalLoop=1;jettySize=auto;html=1;exitX=1;exitY=0.75;exitDx=0;exitDy=0;entryX=0.922;entryY=1.064;entryDx=0;entryDy=0;entryPerimeter=0;" edge="1" parent="WIyWlLk6GJQsqaUBKTNV-1" source="ISupGkMPQCeLkf7W93xA-97" target="ISupGkMPQCeLkf7W93xA-10">
          <mxGeometry relative="1" as="geometry">
            <mxPoint x="1080" y="319.74032315340907" as="targetPoint" />
            <Array as="points">
              <mxPoint x="1080" y="-332" />
              <mxPoint x="1080" y="180" />
              <mxPoint x="190" y="180" />
              <mxPoint x="190" />
              <mxPoint x="191" />
            </Array>
          </mxGeometry>
        </mxCell>
        <mxCell id="ISupGkMPQCeLkf7W93xA-109" style="edgeStyle=orthogonalEdgeStyle;rounded=0;orthogonalLoop=1;jettySize=auto;html=1;exitX=1;exitY=0.5;exitDx=0;exitDy=0;entryX=0.5;entryY=1;entryDx=0;entryDy=0;" edge="1" parent="WIyWlLk6GJQsqaUBKTNV-1" source="ISupGkMPQCeLkf7W93xA-97" target="ISupGkMPQCeLkf7W93xA-28">
          <mxGeometry relative="1" as="geometry">
            <mxPoint x="1100" y="230" as="targetPoint" />
            <Array as="points">
              <mxPoint x="1060" y="-350" />
              <mxPoint x="1100" y="-350" />
              <mxPoint x="1100" y="210" />
              <mxPoint x="325" y="210" />
            </Array>
          </mxGeometry>
        </mxCell>
        <mxCell id="ISupGkMPQCeLkf7W93xA-110" style="edgeStyle=orthogonalEdgeStyle;rounded=0;orthogonalLoop=1;jettySize=auto;html=1;exitX=0;exitY=0.5;exitDx=0;exitDy=0;entryX=1;entryY=0.5;entryDx=0;entryDy=0;" edge="1" parent="WIyWlLk6GJQsqaUBKTNV-1" source="ISupGkMPQCeLkf7W93xA-97" target="ISupGkMPQCeLkf7W93xA-53">
          <mxGeometry relative="1" as="geometry" />
        </mxCell>
        <mxCell id="ISupGkMPQCeLkf7W93xA-113" style="edgeStyle=orthogonalEdgeStyle;rounded=0;orthogonalLoop=1;jettySize=auto;html=1;exitX=0.5;exitY=1;exitDx=0;exitDy=0;entryX=0.5;entryY=0;entryDx=0;entryDy=0;" edge="1" parent="WIyWlLk6GJQsqaUBKTNV-1" source="ISupGkMPQCeLkf7W93xA-97" target="ISupGkMPQCeLkf7W93xA-102">
          <mxGeometry relative="1" as="geometry" />
        </mxCell>
        <mxCell id="ISupGkMPQCeLkf7W93xA-97" value="Artist Article Repository Injector" style="html=1;whiteSpace=wrap;" vertex="1" parent="WIyWlLk6GJQsqaUBKTNV-1">
          <mxGeometry x="950" y="-370" width="110" height="50" as="geometry" />
        </mxCell>
        <mxCell id="ISupGkMPQCeLkf7W93xA-103" style="edgeStyle=orthogonalEdgeStyle;rounded=0;orthogonalLoop=1;jettySize=auto;html=1;exitX=0;exitY=0.25;exitDx=0;exitDy=0;entryX=1;entryY=0.5;entryDx=0;entryDy=0;" edge="1" parent="WIyWlLk6GJQsqaUBKTNV-1" source="ISupGkMPQCeLkf7W93xA-102" target="ISupGkMPQCeLkf7W93xA-35">
          <mxGeometry relative="1" as="geometry">
            <Array as="points">
              <mxPoint x="800" y="-240" />
              <mxPoint x="800" y="-75" />
            </Array>
          </mxGeometry>
        </mxCell>
        <mxCell id="ISupGkMPQCeLkf7W93xA-105" style="edgeStyle=orthogonalEdgeStyle;rounded=0;orthogonalLoop=1;jettySize=auto;html=1;exitX=0;exitY=0.75;exitDx=0;exitDy=0;entryX=1;entryY=0.5;entryDx=0;entryDy=0;" edge="1" parent="WIyWlLk6GJQsqaUBKTNV-1" source="ISupGkMPQCeLkf7W93xA-102" target="ISupGkMPQCeLkf7W93xA-38">
          <mxGeometry relative="1" as="geometry" />
        </mxCell>
        <mxCell id="ISupGkMPQCeLkf7W93xA-102" value="Article Track Injector" style="html=1;whiteSpace=wrap;" vertex="1" parent="WIyWlLk6GJQsqaUBKTNV-1">
          <mxGeometry x="950" y="-252.5" width="110" height="50" as="geometry" />
        </mxCell>
        <mxCell id="ISupGkMPQCeLkf7W93xA-106" style="edgeStyle=orthogonalEdgeStyle;rounded=0;orthogonalLoop=1;jettySize=auto;html=1;exitX=0.5;exitY=1;exitDx=0;exitDy=0;entryX=0;entryY=0.5;entryDx=0;entryDy=0;" edge="1" parent="WIyWlLk6GJQsqaUBKTNV-1" source="ISupGkMPQCeLkf7W93xA-102" target="ISupGkMPQCeLkf7W93xA-33">
          <mxGeometry relative="1" as="geometry">
            <Array as="points">
              <mxPoint x="1005" y="-10" />
              <mxPoint x="410" y="-10" />
              <mxPoint x="410" y="-153" />
            </Array>
          </mxGeometry>
        </mxCell>
      </root>
    </mxGraphModel>
  </diagram>
</mxfile>
